<?xml version="1.0" encoding="utf-8"?>
<svg xmlns="http://www.w3.org/2000/svg" id="Layer_1" style="enable-background:new 0 0 549.7 41.7;" version="1.1" viewBox="0 0 549.7 41.7" x="0px" y="0px">
<style type="text/css">
	.st0{fill:#FFFFFF;}
</style>
<g>
	<path class="st0" d="M44.7,7L34.6,30.8h2.9l3.2-7.5h10.2l3.2,7.5h2.8L46.8,7H44.7z M41.4,20.9l4.3-10.2L50,20.9H41.4z"/>
	<path class="st0" d="M86.2,19.7c-0.7-0.5-1.6-0.9-2.7-1.2c-1-0.3-2.1-0.6-3.4-0.9c-1.2-0.3-2.2-0.5-3-0.7s-1.4-0.5-1.9-0.8&#xA;		c-0.5-0.3-0.8-0.6-1-1s-0.3-0.9-0.3-1.6c0-1.3,0.4-2.3,1.3-3c0.9-0.8,2.4-1.2,4.5-1.2c2.5,0,4.5,0.8,5.9,2.3l0.4,0.5l1.4-2.2&#xA;		l-0.3-0.3c-1-0.9-2.1-1.7-3.3-2.1c-1.2-0.5-2.6-0.7-4.1-0.7c-1.2,0-2.4,0.1-3.4,0.4s-2,0.7-2.7,1.3c-0.8,0.6-1.4,1.3-1.8,2.2&#xA;		c-0.4,0.9-0.6,1.9-0.6,3c0,1,0.2,1.9,0.5,2.6c0.4,0.7,0.9,1.3,1.6,1.8s1.5,0.9,2.5,1.2c0.9,0.3,2,0.6,3.3,0.8&#xA;		c1.2,0.3,2.2,0.5,3.1,0.8c0.9,0.3,1.6,0.6,2.1,0.9s0.9,0.7,1.2,1.2c0.3,0.4,0.4,1,0.4,1.7c0,1.3-0.5,2.3-1.5,2.9&#xA;		c-1,0.7-2.5,1-4.4,1c-1.7,0-3.2-0.3-4.5-0.8s-2.5-1.3-3.4-2.3L71.7,25l-1.4,2.2l0.3,0.3c2.5,2.3,5.7,3.5,9.4,3.5&#xA;		c1.3,0,2.4-0.1,3.4-0.4s2-0.7,2.7-1.2c0.8-0.5,1.4-1.2,1.8-2.1c0.4-0.8,0.7-1.8,0.7-2.9s-0.2-2-0.6-2.8&#xA;		C87.6,20.9,87,20.3,86.2,19.7z"/>
	<polygon class="st0" points="121.9,17.4 108.6,17.4 108.6,7 105.9,7 105.9,30.8 108.6,30.8 108.6,19.9 121.9,19.9 121.9,30.8 &#xA;		124.6,30.8 124.6,7 121.9,7"/>
	<polygon class="st0" points="146.4,7 143.8,7 143.8,30.8 160,30.8 160,28.3 146.4,28.3"/>
	<polygon class="st0" points="178.4,19.8 190,19.8 190,17.4 178.4,17.4 178.4,9.5 191.7,9.5 191.7,7 175.8,7 175.8,30.8 192,30.8 &#xA;		192,28.3 178.4,28.3"/>
	<polygon class="st0" points="216.5,19.2 208.8,7 205.8,7 215.1,21.8 215.1,30.8 217.8,30.8 217.8,21.8 227.2,7 224.2,7"/>
	<rect class="st0" height="2.5" width="13.4" x="462.1" y="36.7"/>
	<polygon class="st0" points="264.3,22.8 255.1,7 252.7,7 252.7,30.8 255.3,30.8 255.3,12.4 263.5,26.4 265.1,26.4 273.4,12.4 &#xA;		273.4,30.8 276,30.8 276,7 273.6,7"/>
	<path class="st0" d="M303.6,7h-2.1l-10.1,23.8h2.9l3.2-7.5h10.2l3.2,7.5h2.8l-9.9-23.5L303.6,7z M298.2,20.9l4.3-10.2l4.2,10.2&#xA;		H298.2z"/>
	<path class="st0" d="M345.7,10.5c-0.9-1.1-2.1-1.9-3.6-2.6C340.7,7.3,339,7,337.2,7h-8.1v23.8h8.1c1.7,0,3.3-0.3,4.7-0.9&#xA;		c1.4-0.6,2.6-1.4,3.6-2.4s1.8-2.3,2.3-3.8s0.8-3.1,0.8-4.9c0-1.6-0.2-3.1-0.7-4.6C347.3,12.8,346.6,11.6,345.7,10.5z M345.3,22.6&#xA;		c-0.4,1.1-0.9,2.1-1.7,3c-0.7,0.8-1.6,1.5-2.7,2s-2.3,0.7-3.8,0.7h-5.4V9.5h5.4c1.4,0,2.7,0.2,3.7,0.7c1.1,0.5,2,1.1,2.7,1.9&#xA;		c0.7,0.8,1.3,1.8,1.7,3c0.4,1.2,0.6,2.4,0.6,3.8C345.9,20.2,345.7,21.5,345.3,22.6z"/>
	<rect class="st0" height="23.8" width="2.6" x="366.2" y="7"/>
	<path class="st0" d="M402,19.7c-0.7-0.5-1.6-0.9-2.7-1.2c-1-0.3-2.1-0.6-3.4-0.9c-1.2-0.3-2.2-0.5-3-0.7s-1.4-0.5-1.9-0.8&#xA;		c-0.5-0.3-0.8-0.6-1-1s-0.3-0.9-0.3-1.6c0-1.3,0.4-2.3,1.3-3c0.9-0.8,2.4-1.2,4.5-1.2c2.5,0,4.5,0.8,5.9,2.3l0.4,0.5l1.4-2.2&#xA;		L403,9.6c-1-0.9-2.1-1.7-3.3-2.1c-1.2-0.5-2.6-0.7-4.1-0.7c-1.2,0-2.4,0.1-3.4,0.4s-2,0.7-2.7,1.3c-0.8,0.6-1.4,1.3-1.8,2.2&#xA;		s-0.6,1.9-0.6,3c0,1,0.2,1.9,0.5,2.6c0.4,0.7,0.9,1.3,1.6,1.8s1.5,0.9,2.5,1.2c0.9,0.3,2,0.6,3.3,0.8c1.2,0.3,2.2,0.5,3.1,0.8&#xA;		s1.6,0.6,2.1,0.9s0.9,0.7,1.2,1.2c0.3,0.4,0.4,1,0.4,1.7c0,1.3-0.5,2.3-1.5,2.9c-1,0.7-2.5,1-4.4,1c-1.7,0-3.2-0.3-4.5-0.8&#xA;		c-1.3-0.6-2.5-1.3-3.4-2.3l-0.4-0.5l-1.4,2.2l0.3,0.3c2.5,2.3,5.7,3.5,9.4,3.5c1.3,0,2.4-0.1,3.4-0.4s2-0.7,2.7-1.2&#xA;		c0.8-0.5,1.4-1.2,1.8-2.1c0.4-0.8,0.7-1.8,0.7-2.9s-0.2-2-0.6-2.8C403.4,20.9,402.8,20.3,402,19.7z"/>
	<path class="st0" d="M439.4,10.7c-1-1.1-2.2-2.1-3.5-2.8c-1.4-0.7-2.9-1.1-4.6-1.1c-1.6,0-3.1,0.3-4.5,1s-2.6,1.6-3.5,2.7&#xA;		c-1,1.1-1.8,2.4-2.3,3.8c-0.6,1.4-0.9,3-0.9,4.6c0,1.5,0.3,3,0.8,4.4s1.3,2.7,2.3,3.8c1,1.1,2.2,2,3.5,2.7c1.4,0.7,2.9,1,4.6,1&#xA;		c1.6,0,3.1-0.3,4.5-1s2.5-1.5,3.5-2.7c1-1.1,1.8-2.4,2.3-3.8c0.6-1.4,0.9-3,0.9-4.6c0-1.5-0.3-2.9-0.8-4.4S440.4,11.8,439.4,10.7z&#xA;		 M439.2,22.4c-0.4,1.1-1,2.2-1.7,3.1s-1.6,1.6-2.7,2.2c-1,0.5-2.2,0.8-3.5,0.8c-1.2,0-2.4-0.3-3.4-0.8s-2-1.2-2.7-2.1&#xA;		c-0.8-0.9-1.4-1.9-1.8-3.1c-0.4-1.1-0.6-2.4-0.6-3.6s0.2-2.4,0.6-3.5s1-2.2,1.7-3.1c0.7-0.9,1.7-1.6,2.7-2.2c1-0.5,2.2-0.8,3.5-0.8&#xA;		c1.2,0,2.4,0.3,3.4,0.8s1.9,1.2,2.7,2.1c0.8,0.9,1.4,1.9,1.8,3.1c0.4,1.1,0.6,2.4,0.6,3.6C439.8,20.1,439.6,21.2,439.2,22.4z"/>
	<polygon class="st0" points="476.1,26.1 461,7.2 460.8,7 458.8,7 458.8,30.8 461.4,30.8 461.4,12 476.4,30.8 478.7,30.8 478.7,7 &#xA;		476.1,7"/>
	<path class="st0" d="M497.7,9.4c-0.2-0.5-0.5-1-0.9-1.4s-0.9-0.7-1.4-0.9s-1.2-0.3-1.8-0.3c-0.6,0-1.2,0.1-1.8,0.3&#xA;		c-0.5,0.2-1,0.5-1.4,0.9s-0.7,0.9-0.9,1.4c-0.2,0.5-0.3,1.1-0.3,1.8c0,0.6,0.1,1.2,0.3,1.8c0.2,0.5,0.5,1,0.9,1.4s0.9,0.7,1.4,0.9&#xA;		c0.6,0.2,1.2,0.3,1.8,0.3c0.6,0,1.3-0.1,1.8-0.3c0.6-0.2,1-0.5,1.4-0.9s0.7-0.9,0.9-1.4c0.2-0.5,0.3-1.1,0.3-1.8&#xA;		C498,10.6,497.9,10,497.7,9.4z M497.1,12.8c-0.2,0.5-0.5,0.9-0.8,1.2s-0.8,0.6-1.2,0.8c-0.5,0.2-1,0.3-1.5,0.3&#xA;		c-0.6,0-1.1-0.1-1.6-0.3s-0.9-0.5-1.2-0.8s-0.6-0.8-0.8-1.2c-0.2-0.5-0.3-1-0.3-1.6s0.1-1.1,0.3-1.5c0.2-0.5,0.5-0.9,0.8-1.2&#xA;		s0.8-0.6,1.2-0.8c0.5-0.2,1-0.3,1.6-0.3s1.1,0.1,1.6,0.3c0.5,0.2,0.9,0.5,1.2,0.8c0.3,0.3,0.6,0.8,0.8,1.2c0.2,0.5,0.3,1,0.3,1.5&#xA;		C497.4,11.8,497.3,12.3,497.1,12.8z"/>
	<path class="st0" d="M494.8,11.7c0.2-0.1,0.3-0.2,0.4-0.4s0.2-0.3,0.3-0.5c0.1-0.2,0.1-0.4,0.1-0.6c0-0.2,0-0.4-0.1-0.7&#xA;		c-0.1-0.2-0.2-0.4-0.4-0.6c-0.1-0.2-0.3-0.3-0.5-0.4c-0.2-0.1-0.4-0.2-0.7-0.2h-2.4V14h0.7v-2h1.4l1.3,2.1h0.8l-1.4-2.2&#xA;		C494.6,11.9,494.7,11.8,494.8,11.7z M492.3,11.3V9.1h1.6c0.3,0,0.5,0.1,0.7,0.3s0.3,0.5,0.3,0.8s-0.1,0.6-0.3,0.8&#xA;		c-0.2,0.2-0.4,0.3-0.7,0.3C493.9,11.3,492.3,11.3,492.3,11.3z"/>
</g>
</svg>